{"title":"Hamraaz ( 1967 ) Hindi DvD 2CD Rip Xvid Esub 6 channels XMR@Mast","uid":6603445,"size":1457945478,"categoryP":"video","categoryS":"movies","magnet":"?xt=urn:btih:df30c19f741f0177c7dd1271163b92f08ddf633a&amp;dn=Hamraaz+%28+1967+%29+Hindi+DvD+2CD+Rip+Xvid+Esub+6+channels+XMR%40Mast&amp;tr=udp%3A%2F%2Ftracker.openbittorrent.com%3A80&amp;tr=udp%3A%2F%2Fopen.demonii.com%3A1337&amp;tr=udp%3A%2F%2Ftracker.coppersurfer.tk%3A6969&amp;tr=udp%3A%2F%2Fexodus.desync.com%3A6969","seeders":0,"leechers":3,"uploader":"amanrulz","files":3,"time":1313312197,"description":"mastitorrents.com\n &lt;a href=&quot;\nhttp://mastitorrents.com/forums/index.php&quot; rel=&quot;nofollow&quot; target=&quot;_NEW&quot;&gt;\nhttp://mastitorrents.com/forums/index.php&lt;/a&gt;\n\nRipper                           : Rahul\nSource                           : IMN\nComplete name                    : Hamraaz ( 1967 ) \nFormat                           : AVI\nFormat/Info                      : Audio Video Interleave\nFile size                        : 1.35 GiB\nDuration                         : 3h 6mn\nOverall bit rate                 : 1 038 Kbps\nWriting application              : VirtualDubMod 1.5.10.3 | \n\nVideo\nID                               : 0\nFormat                           : MPEG-4 Visual\nFormat profile                   : Advanced Simple@L5\nFormat settings, BVOP            : 2\nFormat settings, QPel            : Yes\nFormat settings, GMC             : No warppoints\nFormat settings, Matrix          : Default (MPEG)\nCodec ID                         : XVID\nCodec ID/Hint                    : XviD\nDuration                         : 3h 6mn\nBit rate                         : 813 Kbps\nWidth                            : 640 pixels\nHeight                           : 480 pixels\nDisplay aspect ratio             : 4:3\nFrame rate                       : 23.976 fps\nColor space                      : YUV\nChroma subsampling               : 4:2:0\nBit depth                        : 8 bits\nScan type                        : Interlaced\nScan order                       : Bottom Field First\nCompression mode                 : Lossy\nBits/(Pixel*Frame)               : 0.110\nStream size                      : 1.06 GiB (78%)\nWriting library                  : XviD 1.2.1 (UTC 2008-12-04)\n\nAudio\nID                               : 1\nFormat                           : AC-3\nFormat/Info                      : Audio Coding 3\nMode extension                   : CM (complete main)\nCodec ID                         : 2000\nDuration                         : 2h 59mn\nBit rate mode                    : Constant\nBit rate                         : 224 Kbps\nChannel(s)                       : 6 channels\nChannel positions                : Front: L C R, Side: L R, LFE\nSampling rate                    : 48.0 KHz\nBit depth                        : 16 bits\nCompression mode                 : Lossy\nStream size                      : 288 MiB (21%)\nAlignment                        : Split accross interleaves\nInterleave, duration             : 43 ms (1.04 video frame)\nInterleave, preload duration     : 500 ms","torrent":{"xt":"urn:btih:df30c19f741f0177c7dd1271163b92f08ddf633a","amp;dn":"Hamraaz+%28+1967+%29+Hindi+DvD+2CD+Rip+Xvid+Esub+6+channels+XMR%40Mast","amp;tr":["udp%3A%2F%2Ftracker.openbittorrent.com%3A80","udp%3A%2F%2Fopen.demonii.com%3A1337","udp%3A%2F%2Ftracker.coppersurfer.tk%3A6969","udp%3A%2F%2Fexodus.desync.com%3A6969"],"infoHash":"df30c19f741f0177c7dd1271163b92f08ddf633a","infoHashBuffer":{"type":"Buffer","data":[223,48,193,159,116,31,1,119,199,221,18,113,22,59,146,240,141,223,99,58]},"announce":[],"urlList":[]}}